<svg width="512" height="512" viewBox="0 0 512 512" xmlns="http://www.w3.org/2000/svg" xmlns:xlink="http://www.w3.org/1999/xlink" id="Layer_1" overflow="hidden"><style>
.MsftOfcThm_Accent1_Fill_v2 {
 fill:#003383; 
}
</style>
<path d="M498.309 150.126 470.361 145.338C466.799 129.969 460.772 115.431 452.4 102.014L468.786 78.852C470.474 76.466 470.197 73.211 468.131 71.145L437.152 40.166C435.085 38.098 431.83 37.822 429.444 39.51L406.281 55.896C392.862 47.522 378.323 41.496 362.957 37.935L358.168 9.987C357.675 7.107 355.177 5.001 352.254 5.001L308.442 5.001C305.519 5.001 303.022 7.107 302.528 9.987L297.739 37.935C282.377 41.495 267.838 47.522 254.416 55.896L231.253 39.51C228.868 37.822 225.612 38.098 223.545 40.166L210.357 53.354C174.362 51.245 138.288 61.199 108.488 81.54 58.654 115.555 31.653 173.938 38.023 233.904 39.441 247.26 37.727 258.724 32.462 271.075L10.469 322.674C7.586 329.439 8.258 336.837 12.312 342.971 16.366 349.106 22.908 352.624 30.262 352.624L62.46 352.624C62.291 354.139 62.084 355.65 61.881 357.141 60.591 366.579 59.03 378.002 68.942 387.12 62.024 396.852 66.034 404.532 68.583 409.413 69.658 411.471 70.585 413.248 70.674 414.725 71.016 420.457 70.078 425.567 69.171 430.509 68.085 436.426 67.059 442.014 68.636 447.461 72.083 459.366 87.157 460.972 101.448 460.972 127.55 460.972 144.705 459.195 153.61 457.929L153.61 501C153.61 504.313 156.297 507 159.61 507L331.053 507C334.366 507 337.053 504.313 337.053 501L337.053 372.368C337.398 365.275 337.955 358.074 338.692 350.891L352.257 350.891C355.18 350.891 357.677 348.785 358.171 345.905L362.96 317.957C378.328 314.395 392.867 308.368 406.283 299.996L429.446 316.382C431.831 318.069 435.087 317.793 437.154 315.726L468.133 284.747C470.199 282.681 470.476 279.426 468.789 277.04L452.403 253.877C460.777 240.459 466.804 225.92 470.364 210.554L498.312 205.765C501.192 205.271 503.298 202.774 503.298 199.851L503.298 156.04C503.298 153.117 501.192 150.62 498.311 150.126ZM325.059 371.933C325.055 372.03 325.052 372.126 325.052 372.223L325.052 495 165.609 495 165.609 450.834C165.609 449.018 164.782 447.3 163.368 446.161 161.952 445.021 160.092 444.587 158.321 444.973 158.138 445.013 139.591 448.971 101.448 448.971 88.813 448.971 81.055 447.203 80.163 444.122 79.373 441.395 80.115 437.354 80.975 432.675 81.963 427.292 83.083 421.193 82.654 414.009 82.413 409.967 80.717 406.721 79.221 403.857 76.539 398.721 75.429 396.595 81.867 390.565 83.245 389.275 83.935 387.412 83.73 385.535 83.525 383.659 82.449 381.988 80.826 381.025 71.883 375.722 72.228 370.058 73.771 358.763 74.299 354.898 74.845 350.901 74.845 346.622 74.845 343.309 72.158 340.622 68.845 340.622L30.262 340.622C26.914 340.622 24.169 339.145 22.324 336.352 20.478 333.56 20.197 330.456 21.509 327.376L43.502 275.777C49.529 261.635 51.581 247.926 49.956 232.633 44.053 177.068 69.075 122.968 115.256 91.448 139.824 74.679 168.992 65.53 198.621 65.089L192.569 71.141C190.503 73.207 190.226 76.462 191.913 78.848L208.299 102.01C199.925 115.43 193.898 129.968 190.338 145.334L162.391 150.122C159.51 150.616 157.404 153.113 157.404 156.036L157.404 199.848C157.404 202.771 159.51 205.268 162.391 205.762L190.339 210.55C193.901 225.918 199.928 240.457 208.3 253.874L191.914 277.036C190.226 279.422 190.503 282.677 192.57 284.743L223.549 315.722C225.616 317.789 228.87 318.066 231.257 316.378L254.419 299.991C267.837 308.365 282.376 314.392 297.743 317.953L302.532 345.9C303.026 348.78 305.523 350.886 308.446 350.886L326.624 350.886C325.922 357.925 325.396 364.977 325.06 371.927ZM491.296 194.791 464.343 199.41C461.9 199.829 459.966 201.708 459.475 204.138 456.11 220.82 449.613 236.491 440.165 250.716 438.793 252.78 438.833 255.477 440.265 257.5L456.069 279.84 432.245 303.663 409.906 287.86C407.882 286.428 405.186 286.388 403.122 287.76 388.899 297.205 373.227 303.702 356.543 307.07 354.113 307.561 352.235 309.495 351.816 311.938L347.198 338.891 313.505 338.891 308.887 311.938C308.469 309.495 306.59 307.56 304.16 307.07 287.478 303.706 271.807 297.209 257.581 287.76 255.517 286.388 252.821 286.427 250.796 287.86L228.457 303.664 204.633 279.84 220.436 257.501C221.868 255.478 221.908 252.782 220.536 250.717 211.091 236.493 204.594 220.821 201.226 204.137 200.736 201.707 198.801 199.829 196.358 199.41L169.405 194.792 169.405 161.1 196.358 156.482C198.802 156.063 200.736 154.184 201.226 151.754 204.591 135.073 211.088 119.401 220.536 105.175 221.908 103.11 221.868 100.414 220.436 98.391L204.633 76.052 228.457 52.228 250.796 68.031C252.82 69.462 255.515 69.503 257.58 68.131 271.81 58.683 287.482 52.186 304.159 48.822 306.589 48.332 308.468 46.397 308.886 43.954L313.505 17 347.198 17 351.816 43.954C352.234 46.397 354.113 48.332 356.543 48.822 373.224 52.186 388.895 58.683 403.122 68.131 405.186 69.503 407.883 69.462 409.906 68.031L432.245 52.228 456.069 76.052 440.266 98.391C438.834 100.414 438.794 103.11 440.166 105.175 449.611 119.398 456.108 135.07 459.476 151.755 459.966 154.185 461.901 156.063 464.344 156.482L491.297 161.1 491.297 194.791ZM330.35 81.576C277.212 81.576 233.98 124.807 233.98 177.945 233.98 231.083 277.211 274.315 330.35 274.315 383.489 274.315 426.72 231.084 426.72 177.945 426.72 124.806 383.489 81.576 330.35 81.576ZM330.35 262.315C283.829 262.315 245.98 224.466 245.98 177.945 245.98 131.424 283.828 93.576 330.35 93.576 376.872 93.576 414.72 131.424 414.72 177.945 414.72 224.466 376.872 262.315 330.35 262.315ZM361.766 202.796C360.433 214.831 350.305 224.318 337.349 226.771L337.349 238.677C337.349 242.543 334.215 245.677 330.349 245.677 326.483 245.677 323.349 242.543 323.349 238.677L323.349 226.72C315.315 225.309 306.646 221.567 301.848 214.383 299.701 211.169 300.566 206.822 303.781 204.675 306.995 202.529 311.343 203.392 313.49 206.608 315.958 210.303 322.666 213.087 329.802 213.379 338.968 213.754 347.069 208.317 347.851 201.256 348.822 192.488 342.534 189.069 327.116 184.276 325.85 183.882 324.612 183.497 323.421 183.11 302.552 176.328 297.185 162.382 299.12 151.594 301.161 140.217 310.994 131.486 323.349 129.131L323.349 117.214C323.349 113.348 326.483 110.214 330.349 110.214 334.215 110.214 337.349 113.348 337.349 117.214L337.349 129.157C345.408 130.557 354.122 134.3 358.938 141.509 361.085 144.724 360.22 149.071 357.005 151.218 353.792 153.364 349.443 152.5 347.296 149.286 344.828 145.59 338.119 142.806 330.983 142.515 320.661 142.107 313.96 148.152 312.899 154.066 311.742 160.518 317.293 166.398 327.748 169.795 328.885 170.165 330.066 170.531 331.273 170.907 343.574 174.732 364.164 181.134 361.766 202.797Z" class="MsftOfcThm_Accent1_Fill_v2" fill="#003383"/></svg>