<svg width="512" height="512" viewBox="0 0 64 64" xmlns="http://www.w3.org/2000/svg" xmlns:xlink="http://www.w3.org/1999/xlink" id="Layer_1_1_" overflow="hidden"><style>
.MsftOfcThm_Accent1_Fill_v2 {
 fill:#003383; 
}
</style>
<path d="M30.548 58C32.2 60.474 34.993 62 38 62 42.963 62 47 57.963 47 53 47 48.037 42.963 44 38 44 34.898 44 32.071 45.59 30.434 48.141 29.796 47.549 29.08 47.073 28.307 46.721 29.337 45.804 30 44.484 30 43 30 40.243 27.757 38 25 38 22.243 38 20 40.243 20 43 20 44.485 20.664 45.806 21.695 46.723 18.93 47.984 17 50.768 17 54L17 57C17 57.553 17.447 58 18 58ZM38 46C41.859 46 45 49.141 45 53 45 56.859 41.859 60 38 60 35.504 60 33.185 58.66 31.947 56.503L31.946 56.504C31.944 56.5 31.943 56.496 31.941 56.493 31.325 55.448 31 54.241 31 53 31 52.058 31.188 51.133 31.559 50.253 32.662 47.669 35.19 46 38 46ZM22 43C22 41.346 23.346 40 25 40 26.654 40 28 41.346 28 43 28 44.654 26.654 46 25 46 23.346 46 22 44.654 22 43ZM19 54C19 50.691 21.691 48 25 48 26.603 48 28.109 48.624 29.243 49.757 29.338 49.852 29.424 49.944 29.503 50.031 29.169 50.991 29 51.987 29 53 29 54.031 29.176 55.047 29.515 56L19 56Z" class="MsftOfcThm_Accent1_Fill_v2" stroke="#E7F1F3" stroke-width="0.576577" fill="#003383"/><path d="M37 57.938 37 59 39 59 39 57.938C40.142 57.687 41 56.67 41 55.454L41 54.548C41 53.143 39.857 52 38.453 52L37.547 52C37.245 52 37 51.755 37 51.453L37 50.547C37 50.245 37.245 50 37.547 50L38.453 50C38.755 50 39 50.245 39 50.547L39 51 41 51 41 50.547C41 49.331 40.142 48.314 39 48.063L39 47 37 47 37 48.062C35.858 48.313 35 49.33 35 50.546L35 51.452C35 52.857 36.143 54 37.547 54L38.453 54C38.755 54 39 54.245 39 54.547L39 55.453C39 55.755 38.755 56 38.453 56L37.547 56C37.245 56 37 55.755 37 55.453L37 55 35 55 35 55.453C35 56.669 35.858 57.686 37 57.938Z" class="MsftOfcThm_Accent1_Fill_v2" stroke="#E7F1F3" stroke-width="0.576577" fill="#003383"/><path d="M27.99 9.858 27.113 3.716C26.974 2.738 26.122 2 25.133 2L4.867 2C3.878 2 3.026 2.738 2.887 3.717L2.01 9.858C2.003 9.905 2 9.953 2 10 2 11.006 2.385 11.915 3 12.618L3 26C3 26.553 3.447 27 4 27L26 27C26.553 27 27 26.553 27 26L27 12.618C27.615 11.915 28 11.006 28 10 28 9.953 27.997 9.905 27.99 9.858ZM16 4 20 4 20 10C20 11.103 19.103 12 18 12 16.897 12 16 11.103 16 10ZM10 4 14 4 14 10C14 11.103 13.103 12 12 12 10.897 12 10 11.103 10 10ZM4.001 10.064 4.867 4 8 4 8 10C8 11.103 7.103 12 6 12 4.919 12 4.035 11.138 4.001 10.064ZM12 25 9 25 9 20 12 20ZM25 25 14 25 14 19C14 18.447 13.553 18 13 18L8 18C7.447 18 7 18.447 7 19L7 25 5 25 5 13.858C5.322 13.942 5.653 14 6 14 7.201 14 8.266 13.458 9 12.618 9.734 13.458 10.799 14 12 14 13.201 14 14.266 13.458 15 12.618 15.734 13.458 16.799 14 18 14 19.201 14 20.266 13.458 21 12.618 21.734 13.458 22.799 14 24 14 24.347 14 24.678 13.942 25 13.858ZM24 12C22.897 12 22 11.103 22 10L22 4 25.133 4 25.999 10.064C25.965 11.138 25.081 12 24 12Z" class="MsftOfcThm_Accent1_Fill_v2" stroke="#E7F1F3" stroke-width="0.576577" fill="#003383"/><path d="M23 16 17 16C16.447 16 16 16.447 16 17L16 21C16 21.553 16.447 22 17 22L23 22C23.553 22 24 21.553 24 21L24 17C24 16.447 23.553 16 23 16ZM22 20 18 20 18 18 22 18Z" class="MsftOfcThm_Accent1_Fill_v2" stroke="#E7F1F3" stroke-width="0.576577" fill="#003383"/><path d="M61.99 9.858 61.113 3.716C60.974 2.738 60.122 2 59.133 2L38.867 2C37.878 2 37.026 2.738 36.887 3.717L36.01 9.858C36.003 9.905 36 9.953 36 10 36 11.006 36.385 11.915 37 12.618L37 26C37 26.553 37.447 27 38 27L60 27C60.553 27 61 26.553 61 26L61 12.618C61.615 11.915 62 11.006 62 10 62 9.953 61.997 9.905 61.99 9.858ZM50 4 54 4 54 10C54 11.103 53.103 12 52 12 50.897 12 50 11.103 50 10ZM44 4 48 4 48 10C48 11.103 47.103 12 46 12 44.897 12 44 11.103 44 10ZM38.001 10.064 38.867 4 42 4 42 10C42 11.103 41.103 12 40 12 38.919 12 38.035 11.138 38.001 10.064ZM46 25 43 25 43 20 46 20ZM59 25 48 25 48 19C48 18.447 47.553 18 47 18L42 18C41.447 18 41 18.447 41 19L41 25 39 25 39 13.858C39.322 13.942 39.653 14 40 14 41.201 14 42.266 13.458 43 12.618 43.734 13.458 44.799 14 46 14 47.201 14 48.266 13.458 49 12.618 49.734 13.458 50.799 14 52 14 53.201 14 54.266 13.458 55 12.618 55.734 13.458 56.799 14 58 14 58.347 14 58.678 13.942 59 13.858ZM58 12C56.897 12 56 11.103 56 10L56 4 59.133 4 59.999 10.064C59.965 11.138 59.081 12 58 12Z" class="MsftOfcThm_Accent1_Fill_v2" stroke="#E7F1F3" stroke-width="0.576577" fill="#003383"/><path d="M57 16 51 16C50.447 16 50 16.447 50 17L50 21C50 21.553 50.447 22 51 22L57 22C57.553 22 58 21.553 58 21L58 17C58 16.447 57.553 16 57 16ZM56 20 52 20 52 18 56 18Z" class="MsftOfcThm_Accent1_Fill_v2" stroke="#E7F1F3" stroke-width="0.576577" fill="#003383"/><path d="M8 56 15 56 15 54 9 54 9 38 11 38C11.36 38 11.692 37.807 11.87 37.493 12.048 37.179 12.043 36.794 11.857 36.485L8.857 31.485C8.496 30.883 7.503 30.883 7.142 31.485L4.142 36.485C3.956 36.794 3.952 37.178 4.129 37.493 4.308 37.807 4.64 38 5 38L7 38 7 55C7 55.553 7.447 56 8 56ZM8 33.943 9.233 36 6.767 36Z" class="MsftOfcThm_Accent1_Fill_v2" stroke="#E7F1F3" stroke-width="0.576577" fill="#003383"/><path d="M57 55 57 38 59 38C59.36 38 59.692 37.807 59.87 37.493 60.048 37.179 60.043 36.794 59.857 36.485L56.857 31.485C56.496 30.883 55.503 30.883 55.142 31.485L52.142 36.485C51.956 36.794 51.952 37.178 52.129 37.493 52.308 37.807 52.64 38 53 38L55 38 55 54 49 54 49 56 56 56C56.553 56 57 55.553 57 55ZM56 33.943 57.233 36 54.766 36Z" class="MsftOfcThm_Accent1_Fill_v2" stroke="#E7F1F3" stroke-width="0.576577" fill="#003383"/></svg>